# xmcd CD database file
# Copyright (C) 1996 Ti Kan
#
# Track frame offsets:
# 	183
# 	11778
# 	24853
# 	41533
# 	60505
# 	76933
# 	90300
# 	110873
# 	121318
# 	134425
#
# Disc length: 2012 seconds
#
# Revision: 1
# Processed by: cddbd v1.4b41PL1 Copyright (c) Steve Scherf et al.
# Submitted via: DiscPlay 3.3.1
#
DISCID=7607da0a
DTITLE=Garth Brooks - Garth Brooks
DYEAR=1900
DGENRE=
TTITLE0=Not Counting You
TTITLE1=I've Got A Good Thing Going
TTITLE2=If Tomorrow Never Comes
TTITLE3=Everytime That It Rains
TTITLE4=Alabama Clay
TTITLE5=Much Too Young (To Feel This Damn Old)
TTITLE6=Cowboy Bill
TTITLE7=Nobody Gets Off In This Town
TTITLE8=I Know One
TTITLE9=The Dance
EXTD=
EXTT0=
EXTT1=
EXTT2=
EXTT3=
EXTT4=
EXTT5=
EXTT6=
EXTT7=
EXTT8=
EXTT9=
PLAYORDER=
